<svg width="16" height="21" viewBox="0 0 16 21" fill="none" xmlns="http://www.w3.org/2000/svg">
<path d="M1.26206 17.3195V17.5929C1.26206 18.5943 1.53153 19.1103 1.95537 19.3658C2.41322 19.6417 3.09608 19.6723 3.83126 19.6698L7.63012 19.6672C8.36529 19.6698 9.04815 19.6391 9.506 19.3632C9.92984 19.1077 10.1993 18.5917 10.1993 17.5903V17.317C10.1208 17.3834 10.0371 17.4421 9.94815 17.4932C9.30978 17.879 8.49349 17.9224 7.63012 17.9198L3.83126 17.9224C2.96788 17.9224 2.1516 17.879 1.51322 17.4932C1.42427 17.4396 1.34054 17.3808 1.26206 17.317V17.3195ZM0.416992 17.5929V3.40203C0.416992 2.06342 0.843448 1.3328 1.51322 0.929174C2.1516 0.543428 2.96788 0.5 3.83126 0.502555L7.63012 0.5C8.49349 0.5 9.30978 0.543428 9.94815 0.929174C10.3275 1.15909 10.6284 1.49119 10.8194 1.97912H11.4133C12.4336 1.97912 12.9935 2.29589 13.3101 2.79403C13.5299 3.14402 13.6057 3.55531 13.6293 3.99981H15.5104C15.7432 3.99981 15.9342 4.18374 15.9342 4.41365C15.9342 4.64101 15.7459 4.8275 15.5104 4.8275H13.6397V6.61061H15.5104C15.7432 6.61061 15.9342 6.79455 15.9342 7.02446C15.9342 7.25182 15.7459 7.43831 15.5104 7.43831H13.6345C13.6188 7.92368 13.5508 8.37585 13.3127 8.75393C12.9988 9.25208 12.4362 9.56885 11.4159 9.56885H11.047V17.598C11.047 18.9366 10.6205 19.6672 9.95077 20.0708C9.31239 20.4566 8.49611 20.5 7.63273 20.4974L3.83387 20.5C2.9705 20.5 2.15421 20.4566 1.51584 20.0708C0.846064 19.6672 0.419608 18.9366 0.419608 17.598L0.416992 17.5929ZM6.12836 4.56182C6.2461 4.36512 6.50511 4.30125 6.70395 4.41621C6.9054 4.53117 6.97081 4.78407 6.85308 4.97822L5.18911 7.7372H6.72749C6.96034 7.7372 7.15133 7.92113 7.15133 8.15104C7.15133 8.24045 7.12255 8.32475 7.07284 8.39117L5.05307 11.7403C4.93533 11.937 4.67632 12.0008 4.47748 11.8859C4.27603 11.7709 4.21062 11.518 4.32835 11.3239L5.99232 8.56489H4.45393C4.38068 8.56233 4.30742 8.54445 4.24201 8.50613C4.04056 8.39117 3.97515 8.13827 4.09289 7.94412L6.13098 4.56438L6.12836 4.56182ZM12.7973 4.44686V4.37534C12.7947 3.91806 12.7659 3.49655 12.5958 3.22576C12.4336 2.96775 12.0909 2.80425 11.4159 2.80425H11.0156C11.0365 2.98818 11.047 3.18744 11.047 3.40203V8.7386H11.4159C12.0909 8.7386 12.431 8.57511 12.5958 8.31709C12.779 8.02842 12.7999 7.5737 12.7973 7.08577C12.7816 6.50588 12.7214 4.9399 12.7973 4.44942V4.44686ZM10.2019 3.39948C10.2019 2.39807 9.93246 1.88204 9.50861 1.62658C9.05076 1.35068 8.36791 1.32003 7.63273 1.32003L3.83387 1.32258C3.09869 1.32003 2.41584 1.35068 1.95799 1.62658C1.53415 1.88204 1.26467 2.39807 1.26467 3.39948V15.0229C1.26467 16.0243 1.53415 16.5404 1.95799 16.7958C2.41584 17.0717 3.09869 17.1024 3.83387 17.0998L7.63273 17.0973C8.36791 17.0998 9.05076 17.0692 9.50861 16.7933C9.93246 16.5378 10.2019 16.0218 10.2019 15.0204V3.39692V3.39948Z" fill="white"/>
</svg>
