<svg width="17" height="21" viewBox="0 0 17 21" fill="none" xmlns="http://www.w3.org/2000/svg">
<path d="M1.73129 17.3195V17.5929C1.73129 18.5943 2.00077 19.1103 2.42461 19.3658C2.88246 19.6417 3.56532 19.6723 4.30049 19.6698L8.09935 19.6672C8.83453 19.6698 9.51739 19.6391 9.97524 19.3632C10.3991 19.1077 10.6686 18.5917 10.6686 17.5903V17.317C10.5901 17.3834 10.5063 17.4421 10.4174 17.4932C9.77901 17.879 8.96273 17.9224 8.09935 17.9198L4.30049 17.9224C3.43712 17.9224 2.62083 17.879 1.98246 17.4932C1.8935 17.4396 1.80978 17.3808 1.73129 17.317V17.3195ZM0.88623 17.5929V3.40203C0.88623 2.06342 1.31269 1.3328 1.98246 0.929174C2.62083 0.543428 3.43712 0.5 4.30049 0.502555L8.09935 0.5C8.96273 0.5 9.77901 0.543428 10.4174 0.929174C10.7968 1.15909 11.0976 1.49119 11.2886 1.97912H11.8825C12.9029 1.97912 13.4628 2.29589 13.7793 2.79403C13.9991 3.14402 14.075 3.55531 14.0985 3.99981H15.9796C16.2125 3.99981 16.4035 4.18374 16.4035 4.41365C16.4035 4.64101 16.2151 4.8275 15.9796 4.8275H14.109V6.61061H15.9796C16.2125 6.61061 16.4035 6.79455 16.4035 7.02446C16.4035 7.25182 16.2151 7.43831 15.9796 7.43831H14.1037C14.0881 7.92368 14.02 8.37585 13.7819 8.75393C13.468 9.25208 12.9055 9.56885 11.8851 9.56885H11.5162V17.598C11.5162 18.9366 11.0898 19.6672 10.42 20.0708C9.78163 20.4566 8.96535 20.5 8.10197 20.4974L4.30311 20.5C3.43973 20.5 2.62345 20.4566 1.98507 20.0708C1.3153 19.6672 0.888847 18.9366 0.888847 17.598L0.88623 17.5929ZM6.5976 4.56182C6.71533 4.36512 6.97435 4.30125 7.17319 4.41621C7.37464 4.53117 7.44005 4.78407 7.32231 4.97822L5.65835 7.7372H7.19673C7.42958 7.7372 7.62057 7.92113 7.62057 8.15104C7.62057 8.24045 7.59179 8.32475 7.54208 8.39117L5.5223 11.7403C5.40457 11.937 5.14556 12.0008 4.94672 11.8859C4.74526 11.7709 4.67986 11.518 4.79759 11.3239L6.46155 8.56489H4.92317C4.84992 8.56233 4.77666 8.54445 4.71125 8.50613C4.5098 8.39117 4.44439 8.13827 4.56212 7.94412L6.60022 4.56438L6.5976 4.56182ZM13.2665 4.44686V4.37534C13.2639 3.91806 13.2351 3.49655 13.0651 3.22576C12.9029 2.96775 12.5601 2.80425 11.8851 2.80425H11.4848C11.5058 2.98818 11.5162 3.18744 11.5162 3.40203V8.7386H11.8851C12.5601 8.7386 12.9003 8.57511 13.0651 8.31709C13.2482 8.02842 13.2692 7.5737 13.2665 7.08577C13.2508 6.50588 13.1907 4.9399 13.2665 4.44942V4.44686ZM10.6712 3.39948C10.6712 2.39807 10.4017 1.88204 9.97785 1.62658C9.52 1.35068 8.83715 1.32003 8.10197 1.32003L4.30311 1.32258C3.56793 1.32003 2.88508 1.35068 2.42723 1.62658C2.00339 1.88204 1.73391 2.39807 1.73391 3.39948V15.0229C1.73391 16.0243 2.00339 16.5404 2.42723 16.7958C2.88508 17.0717 3.56793 17.1024 4.30311 17.0998L8.10197 17.0973C8.83715 17.0998 9.52 17.0692 9.97785 16.7933C10.4017 16.5378 10.6712 16.0218 10.6712 15.0204V3.39692V3.39948Z" fill="#050F20"/>
</svg>
