<svg width="61" height="60" viewBox="0 0 61 60" fill="none" xmlns="http://www.w3.org/2000/svg">
<path fill-rule="evenodd" clip-rule="evenodd" d="M24.2189 19.1424C23.969 19.3372 23.8915 19.6697 23.891 20.5496L23.8906 21.2984H22.7251H21.5595L21.354 21.5019L21.1484 21.7055V26.0638V30.4221H20.375H19.6016V29.5097V28.5974L19.3625 28.3606L19.1234 28.1238H17.2461H15.3687L15.1297 28.3606L14.8906 28.5974V29.5097V30.4221H13.9719C13.0219 30.4221 12.8397 30.4632 12.6246 30.7263C12.5122 30.8637 12.503 31.2332 12.5015 35.6968L12.5 40.5187L12.7052 40.7462L12.9103 40.9736H25.543H38.1756L38.3808 40.7462C38.6742 40.4209 38.6627 40.0955 38.3469 39.7827L38.1078 39.5459H34.6555H31.2031V35.6805V31.8151H39.1484H47.0938V35.6768V39.5386L45.482 39.5597C43.8895 39.5804 43.8683 39.5827 43.6902 39.7486C43.451 39.9713 43.3924 40.3021 43.5414 40.5876C43.7518 40.9906 43.9196 41.017 46.1204 40.9941L48.0899 40.9736L48.2949 40.7462L48.5 40.5187L48.4985 35.6968C48.497 31.2332 48.4878 30.8637 48.3754 30.7263C48.1602 30.4632 47.9781 30.4221 47.0281 30.4221H46.1094V29.5097V28.5974L45.8703 28.3606L45.6313 28.1238H43.7539H41.8766L41.6375 28.3606L41.3984 28.5974V29.5097V30.4221H40.625H39.8516V26.0638V21.7055L39.646 21.5019L39.4405 21.2984H38.2749H37.1094L37.109 20.5496C37.1085 19.6697 37.031 19.3372 36.7811 19.1424C36.6072 19.007 36.5057 19 34.7188 19C32.9318 19 32.8303 19.007 32.6564 19.1424C32.4065 19.3372 32.329 19.6697 32.3285 20.5496L32.3281 21.2984H30.5H28.6719L28.6715 20.5496C28.671 19.6697 28.5935 19.3372 28.3436 19.1424C28.1697 19.007 28.0682 19 26.2812 19C24.4943 19 24.3928 19.007 24.2189 19.1424ZM27.1953 20.8456V21.2984H26.2812H25.3672V20.8456V20.3929H26.2812H27.1953V20.8456ZM35.6328 20.8456V21.2984H34.7188H33.8047V20.8456V20.3929H34.7188H35.6328V20.8456ZM38.4453 26.5567V30.4221H30.5H22.5547V26.5567V22.6913H30.5H38.4453V26.5567ZM18.125 29.9694V30.4221H17.2461H16.3672V29.9694V29.5167H17.2461H18.125V29.9694ZM44.6328 29.9694V30.4221H43.7539H42.875V29.9694V29.5167H43.7539H44.6328V29.9694ZM29.7969 35.6805V39.5459H21.8516H13.9062V35.6805V31.8151H21.8516H29.7969V35.6805ZM40.7534 39.6651C40.3639 39.9045 40.3023 40.3948 40.6178 40.7446C40.7864 40.9315 40.8725 40.9705 41.1172 40.9705C41.3619 40.9705 41.4479 40.9315 41.6165 40.7446C41.9085 40.421 41.8965 40.0949 41.5813 39.7827C41.3114 39.5154 41.0561 39.4791 40.7534 39.6651Z" fill="#56CCF2"/>
<rect x="1" y="0.5" width="59" height="59" rx="29.5" stroke="#56CCF2"/>
</svg>
