<svg width="61" height="60" viewBox="0 0 61 60" fill="none" xmlns="http://www.w3.org/2000/svg">
<path d="M30.1878 45.9405C23.5197 42.2239 19.9495 39.1614 18.2677 35.088C16.5859 31.0444 16.7925 26.1087 17.6481 18.5268C17.6776 18.17 17.9727 17.9024 18.3267 17.9024C22.4575 17.9024 30.1878 14.0669 30.2173 14.0669C30.4239 13.9777 30.6304 13.9777 30.8074 14.0669C30.8369 14.0669 38.5673 17.9024 42.698 17.9024C43.0816 17.9024 43.3766 18.1998 43.3766 18.5565C44.2028 26.079 44.4093 31.0146 42.7275 35.0583C41.0457 39.1317 37.4756 42.1645 30.8074 45.9108C30.6009 46.0297 30.3354 46.0297 30.1288 45.9108L30.1878 45.9405ZM23.6672 33.5122H37.3871V32.2634H23.6672V33.5122V33.5122ZM37.3871 34.9096H23.6672V35.6232C23.6672 35.8314 23.5197 35.98 23.3131 35.98H20.2446C21.9854 39.0128 25.1719 41.5401 30.5124 44.5431C35.8528 41.5401 39.0394 39.0128 40.7802 35.98H37.7117C37.5346 35.98 37.3576 35.8314 37.3576 35.6232V34.9096H37.3871ZM23.6672 30.866H37.3871V29.6172H23.6672V30.866ZM23.6672 28.2197H37.3871V26.971H23.6672V28.2197ZM23.6672 25.5735H37.3871V24.3247H23.6672V25.5735ZM23.6672 22.9273H37.3871V22.2732C37.3871 22.065 37.5346 21.9164 37.7412 21.9164H42.3735C42.285 21.0839 42.1964 20.1919 42.1079 19.2702C38.0952 18.9728 31.9581 16.1184 30.5419 15.4643C29.1256 16.1482 22.9591 19.0026 18.9759 19.2702C18.8873 20.1919 18.7988 21.0839 18.7103 21.9164H23.3426C23.5492 21.9164 23.6967 22.065 23.6967 22.2732V22.9273H23.6672Z" fill="#56CCF2"/>
<rect x="1" y="0.5" width="59" height="59" rx="29.5" stroke="#56CCF2"/>
</svg>
