<svg width="61" height="60" viewBox="0 0 61 60" fill="none" xmlns="http://www.w3.org/2000/svg">
<path d="M38.7018 20.3798L36.6842 14.6693C36.5965 14.4935 36.5088 14.3178 36.3333 14.1421C36.1579 13.9664 35.807 13.8786 35.193 13.8786C32.0351 13.8786 28.8772 13.8786 25.7193 13.8786C25.1053 13.8786 24.7544 13.9664 24.5789 14.1421C24.4035 14.3178 24.3158 14.4935 24.2281 14.6693L22.2105 20.292C24.4035 18.3592 27.2982 17.2171 30.3684 17.2171C33.4386 17.2171 36.5588 18.4911 38.7018 20.3798ZM35.7193 31.3618C35.9825 31.3618 36.2456 31.6253 36.2456 31.8889C36.2456 32.1525 35.9825 32.416 35.7193 32.416C32.2105 32.416 28.7018 32.416 25.193 32.416C24.9298 32.416 24.6667 32.1525 24.6667 31.8889C24.6667 31.6253 24.9298 31.3618 25.193 31.3618C28.7018 31.3618 32.2105 31.3618 35.7193 31.3618ZM32.0351 29.3411C32.0351 29.6047 31.7719 29.8682 31.5088 29.8682C31.2456 29.8682 30.9825 29.6047 30.9825 29.3411V28.1111C30.9825 27.8475 31.2456 27.584 31.5088 27.584C31.7719 27.584 32.0351 27.8475 32.0351 28.1111V29.3411ZM34.1404 29.3411C34.1404 29.6047 33.8772 29.8682 33.614 29.8682C33.3509 29.8682 33.0877 29.6047 33.0877 29.3411V28.1111C33.0877 27.8475 33.3509 27.584 33.614 27.584C33.8772 27.584 34.1404 27.8475 34.1404 28.1111V29.3411ZM36.2456 29.3411C36.2456 29.6047 35.9825 29.8682 35.7193 29.8682C35.4561 29.8682 35.193 29.6047 35.193 29.3411V28.1111C35.193 27.8475 35.4561 27.584 35.7193 27.584C35.9825 27.584 36.2456 27.8475 36.2456 28.1111V29.3411ZM37.5614 34.0853C37.6491 34.0853 37.7368 34.0853 37.7368 33.9974C37.8246 33.9096 37.8246 33.9096 37.8246 33.8217V26.0904C37.8246 26.0026 37.8246 25.9147 37.7368 25.9147C37.6491 25.8269 37.6491 25.8269 37.5614 25.8269C32.8246 25.8269 28.1754 25.8269 23.4386 25.8269C23.3509 25.8269 23.2632 25.8269 23.2632 25.9147C23.1754 26.0026 23.1754 26.0026 23.1754 26.0904V33.8217C23.1754 33.9096 23.1754 33.9974 23.2632 33.9974C23.3509 34.0853 23.3509 34.0853 23.4386 34.0853C28.1754 34.0853 32.8246 34.0853 37.5614 34.0853ZM37.5614 24.7726C37.9123 24.7726 38.2632 24.9483 38.5263 25.124C38.7895 25.3876 38.8772 25.6512 38.8772 26.0904V33.8217C38.8772 34.1731 38.7018 34.5245 38.5263 34.7881C38.2632 35.0517 38 35.1395 37.5614 35.1395C32.8246 35.1395 28.1754 35.1395 23.4386 35.1395C23.0877 35.1395 22.7368 34.9638 22.4737 34.7881C22.2105 34.5245 22.1228 34.261 22.1228 33.8217V26.0904C22.1228 25.739 22.2982 25.3876 22.4737 25.124C22.7368 24.8605 23 24.7726 23.4386 24.7726C28.1754 24.7726 32.8246 24.7726 37.5614 24.7726ZM40.4561 37.5995L37.6491 45.5065C37.5614 45.8579 37.386 46.2093 37.0351 46.4729C36.6842 46.7364 36.1579 47 35.2807 47C32.1228 47 28.9649 47 25.807 47C24.9298 47 24.4035 46.8243 24.0526 46.4729C23.7018 46.1214 23.5263 45.77 23.4386 45.5065L20.6316 37.7752C18.9649 35.6667 18 32.9432 18 30.0439C18 27.1447 18.9649 24.4212 20.6316 22.3127L23.4386 14.4935C23.5263 14.1421 23.7018 13.7907 24.0526 13.5271C24.4035 13.2636 24.9298 13 25.807 13C28.9649 13 32.1228 13 35.2807 13C36.1579 13 36.6842 13.1757 37.0351 13.5271C37.386 13.8786 37.5614 14.23 37.6491 14.4935L40.4561 22.4005C42.0351 24.509 43 27.1447 43 30.0439C43 32.9432 42.0351 35.5788 40.4561 37.6873V37.5995ZM35.193 45.9457C35.807 45.9457 36.1579 45.8579 36.3333 45.6822C36.5088 45.5065 36.5965 45.3307 36.6842 45.155L38.7018 39.5323C36.5088 41.4651 33.614 42.6072 30.4561 42.6072C27.2982 42.6072 24.4912 41.4651 22.2982 39.5323L24.3158 45.155C24.4035 45.3307 24.4912 45.5065 24.6667 45.6822C24.8421 45.8579 25.193 45.9457 25.807 45.9457C28.9649 45.9457 32.1228 45.9457 35.2807 45.9457H35.193ZM29.9298 29.3411C29.9298 29.6047 29.6667 29.8682 29.4035 29.8682C29.1404 29.8682 28.8772 29.6047 28.8772 29.3411V28.1111C28.8772 27.8475 29.1404 27.584 29.4035 27.584C29.6667 27.584 29.9298 27.8475 29.9298 28.1111V29.3411ZM27.8246 29.3411C27.8246 29.6047 27.5614 29.8682 27.2982 29.8682C27.0351 29.8682 26.7719 29.6047 26.7719 29.3411V28.1111C26.7719 27.8475 27.0351 27.584 27.2982 27.584C27.5614 27.584 27.8246 27.8475 27.8246 28.1111V29.3411ZM25.7193 29.3411C25.7193 29.6047 25.4561 29.8682 25.193 29.8682C24.9298 29.8682 24.6667 29.6047 24.6667 29.3411V28.1111C24.6667 27.8475 24.9298 27.584 25.193 27.584C25.4561 27.584 25.7193 27.8475 25.7193 28.1111V29.3411ZM21.3333 37.0724L21.4211 37.1602C21.6842 37.5116 21.9474 37.863 22.2982 38.1266C24.4035 40.2351 27.2982 41.553 30.4561 41.553C33.614 41.553 36.5088 40.2351 38.614 38.1266C40.7193 36.0181 42.0351 33.1189 42.0351 29.9561C42.0351 26.7933 40.7193 23.8941 38.614 21.7855C36.5088 19.677 33.614 18.3592 30.4561 18.3592C27.2982 18.3592 24.4035 19.677 22.2982 21.7855C20.193 23.8941 18.8772 26.7933 18.8772 29.9561C18.8772 32.6796 19.7544 35.1395 21.3333 37.0724Z" fill="#56CCF2"/>
<rect x="1" y="0.5" width="59" height="59" rx="29.5" stroke="#56CCF2"/>
</svg>
