<svg width="61" height="60" viewBox="0 0 61 60" fill="none" xmlns="http://www.w3.org/2000/svg">
<path d="M26.0095 21.6923C27.2381 21.6923 28.1553 22.05 28.7667 22.7654C29.3781 23.4808 29.6838 24.4788 29.6838 25.7712V26.0712H27.9822V25.65C27.9822 24.9058 27.8207 24.3288 27.5035 23.925C27.1862 23.5212 26.7017 23.3192 26.0499 23.3192C25.3693 23.3192 24.8674 23.5385 24.5502 23.9712C24.2329 24.4038 24.0714 25.0673 24.0714 25.95V29.6077C24.5386 28.4423 25.4154 27.8596 26.7017 27.8596C27.7284 27.8596 28.4898 28.2 28.9859 28.8865C29.4819 29.5673 29.73 30.5192 29.73 31.725V34.1942C29.73 35.4692 29.4127 36.4731 28.7724 37.2115C28.138 37.95 27.2151 38.3192 26.0037 38.3192C24.7751 38.3192 23.8465 37.95 23.212 37.2115C22.5775 36.4731 22.2545 35.4692 22.2545 34.1942V25.8808C22.2545 24.5481 22.5659 23.5154 23.1889 22.7827C23.8119 22.05 24.7463 21.6865 26.0037 21.6865L26.0095 21.6923ZM15.5115 26.0769C15.5115 25.2404 16.048 24.525 16.7921 24.2596C16.8209 22.275 16.9997 20.4288 17.8765 18.9865C18.8859 17.3308 20.749 16.2808 24.1868 16.2808H24.7751C25.0405 15.5365 25.7557 15 26.5863 15C27.6477 15 28.5129 15.8596 28.5129 16.9269C28.5129 17.9885 27.6534 18.8538 26.5863 18.8538C25.75 18.8538 25.0405 18.3231 24.7751 17.5788H24.1868C21.2797 17.5788 19.7569 18.3865 18.9782 19.6615C18.2572 20.8442 18.1014 22.4769 18.0784 24.2596C18.8224 24.525 19.3531 25.2346 19.3531 26.0712C19.3531 27.1327 18.4937 27.9981 17.4266 27.9981C16.3652 27.9981 15.5 27.1385 15.5 26.0712L15.5115 26.0769ZM15.5115 33.9288C15.5115 32.8673 16.371 32.0019 17.4381 32.0019C18.4994 32.0019 19.3646 32.8615 19.3646 33.9288C19.3646 34.7654 18.834 35.475 18.0899 35.7404C18.113 37.5231 18.2629 39.1615 18.9839 40.3442C19.7626 41.6192 21.2854 42.4269 24.1926 42.4269H24.7809C25.0462 41.6827 25.7615 41.1462 26.5921 41.1462C27.6534 41.1462 28.5187 42.0058 28.5187 43.0731C28.5187 44.1346 27.6592 45 26.5921 45C25.7557 45 25.0462 44.4692 24.7809 43.725H24.1926C20.749 43.725 18.8917 42.675 17.8822 41.0192C16.9997 39.5769 16.8209 37.7308 16.7978 35.7462C16.048 35.4808 15.5115 34.7712 15.5115 33.9288V33.9288ZM41.6469 26.0769C41.6469 25.2404 42.1776 24.5308 42.9217 24.2654C42.8986 22.4827 42.7486 20.8442 42.0276 19.6615C41.2489 18.3865 39.7261 17.5788 36.819 17.5788H36.2595C35.9941 18.3231 35.2847 18.8538 34.4483 18.8538C33.3869 18.8538 32.5217 17.9942 32.5217 16.9269C32.5217 15.8654 33.3812 15 34.4483 15C35.2847 15 35.9941 15.5365 36.2595 16.2808H36.819C40.2625 16.2808 42.1199 17.3308 43.1293 18.9865C44.0118 20.4288 44.1906 22.2692 44.2137 24.2538C44.9636 24.5192 45.5 25.2346 45.5 26.0712C45.5 27.1327 44.6406 27.9981 43.5734 27.9981C42.5121 27.9981 41.6469 27.1385 41.6469 26.0712V26.0769ZM41.6469 33.9288C41.6469 32.8673 42.5063 32.0019 43.5734 32.0019C44.6348 32.0019 45.5 32.8615 45.5 33.9288C45.5 34.7654 44.9636 35.4808 44.2195 35.7462C44.1906 37.7308 44.0118 39.5769 43.1351 41.0192C42.1256 42.675 40.2625 43.725 36.8247 43.725H36.2652C35.9999 44.4692 35.2904 45 34.454 45C33.3927 45 32.5275 44.1404 32.5275 43.0731C32.5275 42.0115 33.3869 41.1462 34.454 41.1462C35.2904 41.1462 35.9999 41.6827 36.2652 42.4269H36.8247C39.7319 42.4269 41.2547 41.6192 42.0334 40.3442C42.7544 39.1615 42.9101 37.5288 42.9332 35.7404C42.1891 35.475 41.6584 34.7654 41.6584 33.9288H41.6469ZM26.0095 29.5096C25.3577 29.5096 24.8732 29.7173 24.556 30.1269C24.2387 30.5365 24.0772 31.1192 24.0772 31.8635V34.3096C24.0772 35.0538 24.2387 35.6308 24.556 36.0462C24.8732 36.4558 25.3577 36.6635 26.0095 36.6635C26.644 36.6635 27.1285 36.4558 27.4515 36.0462C27.7803 35.6365 27.9418 35.0538 27.9418 34.3096V31.8635C27.9418 31.1192 27.7803 30.5423 27.4515 30.1269C27.1228 29.7173 26.644 29.5096 26.0095 29.5096V29.5096ZM38.0476 38.1462H36.2768V34.8635H31.0162V33.2077L36.0691 21.8423H38.0476V33.2077H39.3512V34.8635H38.0476V38.1462ZM36.2768 33.2077V25.2462L32.689 33.2077H36.2768Z" fill="#56CCF2"/>
<rect x="1" y="0.5" width="59" height="59" rx="29.5" stroke="#56CCF2"/>
</svg>
