<svg width="61" height="60" viewBox="0 0 61 60" fill="none" xmlns="http://www.w3.org/2000/svg">
<path d="M13.4618 39.922C13.3197 39.4851 13.5328 38.9753 13.9946 38.8297C14.4209 38.684 14.9182 38.9025 15.0603 39.3758C15.3445 40.2497 15.8062 40.9415 16.6233 41.4512C17.4758 41.9974 18.6835 42.2887 20.4596 42.2887H31.9688C34.4198 42.2887 35.8407 41.7061 36.6222 40.723L36.6577 40.6866C37.3326 39.8491 37.6168 38.684 37.7234 37.3732C37.155 37.2275 36.6577 36.8999 36.267 36.4994C35.6631 35.8804 35.3079 35.0429 35.3079 34.0962C35.3079 33.1495 35.6631 32.3121 36.267 31.6931C36.8708 31.0741 37.6879 30.71 38.6114 30.71C39.535 30.71 40.352 31.0741 40.9559 31.6931L40.9914 31.7295C41.5598 32.3485 41.915 33.1496 41.915 34.0598C41.915 35.0065 41.5598 35.8439 40.9559 36.4629C40.5296 36.8998 39.9968 37.1911 39.3929 37.3732C39.2508 39.0481 38.8956 40.5774 37.9365 41.7789L37.901 41.8518C36.7998 43.199 34.9882 44 31.9688 44H20.4596C18.3638 44 16.8719 43.5995 15.7707 42.9077C14.5985 42.1794 13.9236 41.16 13.4973 39.922H13.4618ZM39.7126 32.8947C39.4284 32.6034 39.0022 32.3849 38.5404 32.3849C38.0786 32.3849 37.6879 32.567 37.3682 32.8947C37.084 33.1859 36.8708 33.6229 36.8708 34.0962C36.8708 34.5696 37.0485 34.9701 37.3682 35.2978C37.6523 35.5891 38.0786 35.8075 38.5404 35.8075C39.0022 35.8075 39.3929 35.6255 39.7126 35.2978C39.9968 35.0065 40.2099 34.5696 40.2099 34.0962C40.2099 33.6593 40.0323 33.2588 39.7481 32.9311L39.7126 32.8947V32.8947ZM44.5792 27.1053H44.5436C44.1884 27.1417 43.9042 27.2874 43.6556 27.5059C43.62 27.5423 43.62 27.5787 43.5845 27.6151C43.549 27.6515 43.478 27.6879 43.4424 27.7243C43.1938 28.052 43.0517 28.489 43.0872 28.9259C43.1227 29.3992 43.3359 29.7997 43.6556 30.0546C43.9753 30.3459 44.4015 30.4915 44.8633 30.4551C45.3251 30.4187 45.7159 30.2002 45.9645 29.8725C46.2132 29.5449 46.3908 29.1079 46.3553 28.671V28.6346C46.3197 28.1977 46.1066 27.7971 45.7869 27.5059C45.4672 27.251 45.0409 27.0689 44.6147 27.1053H44.5792ZM44.4371 25.394C45.3251 25.3212 46.1776 25.6125 46.817 26.1951C47.4564 26.7412 47.9182 27.5787 47.9893 28.489C48.0603 29.3992 47.7761 30.2731 47.2078 30.9285C46.6749 31.5839 45.8579 32.0572 44.9699 32.1301C44.0463 32.2029 43.1938 31.9116 42.5544 31.329C41.915 30.7829 41.4532 29.9454 41.3822 29.0351C41.3111 28.3433 41.4887 27.6879 41.8084 27.1053L38.1141 23.6827C37.901 23.5735 37.7234 23.355 37.6879 23.0637C37.6879 22.9909 37.6523 22.9181 37.6523 22.8453C37.5458 21.3888 37.2616 20.078 36.4801 19.1677C35.6631 18.2575 34.2777 17.7113 31.8978 17.7113H20.3886C18.6125 17.7113 17.4047 18.0026 16.5522 18.5488C15.7707 19.0585 15.2734 19.7503 14.9892 20.6242C14.8471 21.0611 14.3854 21.316 13.9236 21.1703C13.4973 21.0247 13.2487 20.5513 13.3907 20.078C13.7815 18.8764 14.4919 17.8206 15.6642 17.0923C16.7653 16.4005 18.2928 16 20.3531 16H31.8622C34.775 16 36.5511 16.7646 37.6879 18.039C38.718 19.2042 39.1443 20.7698 39.2864 22.4811L42.9096 25.8674C43.3359 25.6125 43.8332 25.4305 44.366 25.3576L44.4371 25.394ZM13.071 22.736C13.071 22.2627 13.4263 21.8985 13.8881 21.8985C14.3498 21.8985 14.7051 22.2627 14.7051 22.736V23.355C14.7051 23.5371 15.0603 23.5371 15.4155 23.5735C16.5522 23.6463 17.6889 23.7191 17.6889 25.5396C17.6889 27.3602 16.5522 27.433 15.4155 27.5059C15.0603 27.5423 14.7051 27.5422 14.7051 27.7607C14.7051 27.9792 15.0603 27.9792 15.4155 28.0156C16.5522 28.0884 17.6889 28.1612 17.6889 29.9818C17.6889 31.8023 16.5522 31.8752 15.4155 31.948C15.0603 31.9844 14.7051 31.9844 14.7051 32.2028C14.7051 32.4213 15.0603 32.4577 15.4155 32.4941C16.5522 32.567 17.6534 32.6762 17.6534 34.4604C17.6534 36.2809 16.5167 36.3537 15.38 36.4265C15.0248 36.4629 14.7051 36.4629 14.6695 36.645V37.264C14.6695 37.7373 14.3143 38.1014 13.8525 38.1014C13.3907 38.1014 13.0355 37.7373 13.0355 37.264V36.6086C13.1066 34.8973 14.2077 34.8245 15.2734 34.7517C15.6286 34.7152 15.9839 34.7152 15.9839 34.4967C15.9839 34.2783 15.6286 34.2418 15.2734 34.2418C14.1367 34.169 13.0355 34.0598 13 32.2757V32.2028C13.071 30.4551 14.1722 30.3823 15.2734 30.3095C15.6286 30.2731 15.9839 30.2731 15.9839 30.0182C15.9839 29.7998 15.6286 29.7633 15.2734 29.7633C14.1367 29.6905 13 29.6177 13 27.7972C13 26.013 14.1367 25.9038 15.2734 25.8309C15.6286 25.7945 15.9839 25.7946 15.9839 25.5761C15.9839 25.3576 15.6286 25.3212 15.2734 25.3212C14.1722 25.2484 13.071 25.1756 13.0355 23.4642V22.8088L13.071 22.736Z" fill="#56CCF2"/>
<rect x="1" y="0.5" width="59" height="59" rx="29.5" stroke="#56CCF2"/>
</svg>
