<svg width="42" height="46" viewBox="0 0 42 46" fill="none" xmlns="http://www.w3.org/2000/svg">
<path d="M2.1 38.9295C2.1 41.2291 2.74615 42.3789 3.55385 42.8717C4.52308 43.5287 5.97692 43.5287 7.59231 43.5287H15.8308C17.4462 43.5287 18.9 43.5287 19.8692 42.8717C20.8385 42.3789 21.3231 41.2291 21.3231 38.9295V12.4837C21.3231 10.1841 20.6769 9.03426 19.8692 8.54149C18.9 7.88445 17.4462 7.88445 15.8308 7.88445H7.59231C5.97692 7.88445 4.52308 7.88445 3.55385 8.54149C2.58462 9.03426 2.1 10.1841 2.1 12.4837V38.9295ZM37.0338 3.94222C37.0338 4.59926 36.3789 4.92778 35.8943 4.92778C35.2481 4.92778 34.8923 4.435 34.8923 3.94222C34.8923 2.95667 34.7308 2.62815 34.4077 2.46389C34.0846 2.29963 33.4385 2.13537 32.6308 2.13537H28.4308C27.7846 2.13537 26.9769 2.13537 26.6538 2.46389C26.3308 2.62815 26.1692 3.12093 26.1692 3.94222C26.1692 4.59926 25.6846 4.92778 25.2 4.92778C24.5538 4.92778 24.2308 4.435 24.2308 3.94222C24.2308 2.13537 24.8769 1.14982 25.6846 0.657037C26.4923 0.164259 27.4615 0 28.5923 0H32.7923C33.7615 0 34.8923 0 35.7 0.657037C36.6692 1.14982 37.0338 2.13537 37.0338 3.94222ZM18.232 3.94222C18.232 4.59926 17.5771 4.92778 17.0925 4.92778C16.4464 4.92778 16.1538 4.435 16.1538 3.94222C16.1538 2.95667 15.9923 2.62815 15.6692 2.46389C15.3462 2.29963 14.7 2.13537 13.8923 2.13537H9.69231C9.04615 2.13537 8.23846 2.13537 7.91538 2.46389C7.59231 2.62815 7.43077 3.12093 7.43077 3.94222C7.43077 4.59926 6.94615 4.92778 6.46154 4.92778C5.81538 4.92778 5.49231 4.435 5.49231 3.94222C5.49231 2.13537 6.13846 1.14982 6.94615 0.657037C7.75385 0.164259 8.72308 0 9.85385 0H14.0538C15.0231 0 16.1538 0 16.9615 0.657037C17.9308 1.14982 18.232 2.13537 18.232 3.94222ZM27.7846 38.601C27.1385 38.601 26.8154 38.1082 26.8154 37.6154C26.8154 36.9584 27.3 36.6298 27.7846 36.6298H34.2462C34.8923 36.6298 35.2154 37.1226 35.2154 37.6154C35.2154 38.2724 34.7308 38.601 34.2462 38.601H27.7846ZM30.0462 11.0054C30.0462 10.3483 30.5308 10.0198 31.0154 10.0198C31.6615 10.0198 31.9846 10.5126 31.9846 11.0054V13.305H34.2462C34.8923 13.305 35.2154 13.7978 35.2154 14.2906C35.2154 14.9476 34.7308 15.2761 34.2462 15.2761H31.9846V17.5758C31.9846 18.2328 31.5 18.5613 31.0154 18.5613C30.3692 18.5613 30.0462 18.0685 30.0462 17.5758V15.2761H27.7846C27.1385 15.2761 26.8154 14.7833 26.8154 14.2906C26.8154 13.6335 27.3 13.305 27.7846 13.305H30.0462V11.0054ZM17.6077 20.0396C17.7692 20.5324 17.4462 21.0252 16.9615 21.1895L13.2462 22.3393C12.7615 22.5035 12.1154 22.175 11.9538 21.6822C11.7923 21.1895 12.1154 20.5324 12.6 20.3682L14.2154 19.8754H14.0538C13.4077 19.5469 12.6 19.5469 11.9538 19.5469C10.3385 19.5469 8.72308 20.2039 7.59231 21.3537C6.46154 22.5035 5.81538 23.9819 5.81538 25.7887C5.81538 26.1172 5.81538 26.61 5.97692 26.9385C5.97692 27.2671 6.13846 27.7598 6.3 28.0884C6.46154 28.5811 6.3 29.2382 5.65385 29.4024C5.16923 29.5667 4.52308 29.4024 4.36154 28.7454C4.2 28.2526 4.03846 27.7598 3.87692 27.2671C3.71538 26.7743 3.71538 26.2815 3.71538 25.7887C3.71538 23.4891 4.68462 21.3537 6.13846 19.8754C7.59231 18.397 9.69231 17.4115 11.9538 17.4115C12.9231 17.4115 13.8923 17.5758 14.8615 17.9043L15.1846 18.0685L15.0231 16.7545C14.8615 16.2617 15.3462 15.6046 15.8308 15.6046C16.3154 15.4404 16.9615 15.9332 16.9615 16.4259L17.6077 20.0396ZM5.97692 31.3735C5.81538 30.8808 6.13846 30.388 6.62308 30.2237L10.3385 29.0739C10.8231 28.9096 11.4692 29.2382 11.6308 29.7309C11.7923 30.2237 11.4692 30.8808 10.9846 31.045L9.36923 31.5378H9.53077C10.1769 31.8663 10.9846 31.8663 11.6308 31.8663C13.2462 31.8663 14.8615 31.2093 15.9923 30.0595C17.1231 28.9096 17.7692 27.4313 17.7692 25.6245C17.7692 25.2959 17.7692 24.8032 17.6077 24.4746C17.6077 24.1461 17.4462 23.6533 17.2846 23.3248C17.1231 22.8321 17.2846 22.175 17.9308 22.0108C18.4154 21.8465 19.0615 22.0108 19.2231 22.6678C19.3846 23.1606 19.5462 23.6533 19.7077 24.1461C19.8692 24.6389 19.8692 25.1317 19.8692 25.6245C19.8692 27.9241 18.9 30.0595 17.4462 31.5378C15.9923 33.0161 13.8923 34.0017 11.6308 34.0017C10.6615 34.0017 9.69231 33.8374 8.72308 33.5089L8.4 33.3447L8.56154 34.6587C8.72308 35.1515 8.23846 35.8085 7.75385 35.8085C7.26923 35.9728 6.62308 35.48 6.62308 34.9872L5.97692 31.3735ZM26.1692 46C25.5231 46 25.2 45.3355 25.2 44.8428C25.2 44.1857 25.6846 43.693 26.1692 43.693H34.4077C36.0231 43.693 37.4769 43.693 38.4462 43.036C39.4154 42.5432 39.9 41.3934 39.9 39.0937V12.648C39.9 10.3483 39.2538 9.19852 38.4462 8.70575C37.4769 8.04871 36.0231 8.04871 34.4077 8.04871H26.1692C25.5231 8.04871 25.2 7.55593 25.2 7.06315C25.2 6.40612 25.6846 6.0776 26.1692 6.0776H34.4077C36.3462 6.0776 38.1231 6.24186 39.5769 7.06315C41.0308 8.04871 42 9.6913 42 12.8122V39.258C42 42.3789 41.0308 44.0215 39.5769 45.0071C38.1231 45.8284 36.3462 45.9926 34.4077 45.9926H26.1692V46ZM2.42308 44.6785C0.969231 43.693 0 42.0504 0 38.9295V12.4837C0 9.36278 0.969231 7.72019 2.42308 6.73463C3.87692 5.91334 5.65385 5.74908 7.59231 5.74908H15.8308C17.7692 5.74908 19.5462 5.91334 21 6.73463C22.4538 7.72019 23.4231 9.36278 23.4231 12.4837V38.9295C23.4231 42.0504 22.4538 43.693 21 44.6785C19.5462 45.4998 17.7692 45.6641 15.8308 45.6641H7.59231C5.65385 45.6641 3.87692 45.4998 2.42308 44.6785Z" fill="white"/>
</svg>
