<svg width="37" height="45" viewBox="0 0 37 45" fill="none" xmlns="http://www.w3.org/2000/svg">
<path d="M26.8481 14.5838C26.8481 15.1899 26.3164 15.6821 25.6617 15.6821C25.0071 15.6821 24.4753 15.1899 24.4753 14.5838V7.00252C24.4753 4.6787 23.8238 3.48426 22.8003 2.89961C21.6865 2.26396 19.9972 2.19226 18.1768 2.19374L8.67199 2.19817C6.85166 2.19226 5.16227 2.26396 4.04851 2.89961C3.02418 3.48426 2.37349 4.6787 2.37349 7.00252V34.5706C2.37349 36.8944 3.02498 38.0881 4.04851 38.6728C5.16307 39.3092 6.85166 39.3816 8.67199 39.3794L10.3877 39.375C11.0424 39.375 11.5741 39.8672 11.5741 40.4733C11.5741 41.0794 11.0424 41.5717 10.3877 41.5717H8.67199C6.48919 41.5702 4.43094 41.4638 2.80622 40.5354C1.09048 39.5553 -0.00012207 37.794 -0.00012207 34.5699V7.00179C-0.00012207 3.7777 1.09048 2.01561 2.80622 1.03552C4.43174 0.107174 6.49079 0.00147826 8.67199 0.00443478L18.1768 0C20.3588 0.00147826 22.4163 0.106435 24.0426 1.03552C25.7583 2.01561 26.8489 3.7777 26.8489 7.00179V14.583L26.8481 14.5838ZM17.0471 17.4871C17.0711 17.4679 17.0958 17.4509 17.1182 17.4354C18.6926 16.3503 20.8498 16.5772 21.9979 17.9579C22.7276 17.3171 23.5987 17.0954 24.7172 17.1826C25.5819 17.2498 26.421 17.5647 27.011 18.1464C27.3216 17.8988 27.6042 17.6519 28.0513 17.5174C30.0042 16.9305 31.8612 17.9084 32.3914 19.7414L35.5242 30.5667C35.6975 31.1625 35.8739 31.759 36.0392 32.3577C36.4775 33.9483 36.4392 35.649 36.5206 37.2795C36.563 38.1162 37.0108 39.2042 36.9997 39.8613C36.9925 40.2826 36.923 40.6825 36.4312 40.8858L20.0003 44.9635C19.2411 45.1735 18.9034 44.4321 18.7477 43.8866C18.6271 43.4638 18.5026 43.0418 18.3804 42.6183C18.1896 41.9619 18.1752 41.4623 17.4192 41.2405C16.7501 41.0424 16.0731 40.9198 15.4152 40.6781C14.8172 40.4585 14.0651 40.0062 13.5813 39.6108C12.5426 38.763 11.6636 37.5656 10.7582 36.5833C10.2967 36.0807 9.77617 35.5914 9.35541 35.0607C9.15023 34.802 8.91231 34.5588 8.69115 34.3104C7.81372 33.3252 7.66362 32.2401 7.95983 31.0206C8.05084 30.6458 8.3199 30.2364 8.50273 29.8875C8.92668 29.0848 9.12947 28.7093 8.84205 27.7891C8.51072 26.7233 8.49874 25.8999 9.19494 24.9737C9.50711 24.5576 9.7618 24.3292 10.2249 24.0513C10.7095 23.7608 11.0145 23.7335 11.4057 23.6588C11.1007 22.3543 10.6272 21.0556 10.2552 19.7695C9.83525 18.3194 9.41689 16.8699 8.99773 15.419C8.65363 14.2305 7.88318 12.2437 7.93268 11.0685C8.00933 9.28126 9.83605 7.78748 11.757 7.90648C14.1106 8.05283 14.8268 9.65526 15.3625 11.5075C15.8328 13.1314 16.4092 15.8351 17.0471 17.4864V17.4871ZM20.6798 42.6138L34.4943 39.154C34.4624 39.032 34.4273 38.9064 34.4057 38.7814C34.2508 37.8827 34.1358 36.995 34.159 36.0836C34.1869 35.0037 34.0448 33.6622 33.743 32.6193L30.1519 20.216C29.9531 19.5286 29.1387 19.1967 28.5264 19.6867C27.8533 20.2234 28.8369 21.9263 27.1515 22.0039C25.7017 22.0712 26.0633 20.1302 25.2482 19.5478C24.6486 19.1198 23.7025 19.2728 23.3153 19.8863C23.0486 20.3091 23.1732 20.4961 23.2051 20.978C23.2594 21.8095 22.4378 22.3957 21.5915 22.066C20.6439 21.6987 20.8203 19.8619 20.0954 19.224C19.5724 18.7628 18.6016 18.8848 18.1776 19.4184C17.6028 20.1443 18.1561 21.1857 18.3812 21.9633C18.5137 22.4208 18.9082 23.3854 18.8076 23.8163C18.6175 24.6278 17.4215 24.9989 16.8124 24.3374C16.4467 23.9397 15.8783 21.5397 15.6874 20.8812C15.0368 18.6372 14.3893 16.3932 13.7402 14.1484C13.416 13.0294 13.119 11.903 12.7629 10.7913C12.5226 10.0381 11.5925 9.94279 10.9019 10.2104C10.0197 10.5511 10.2744 11.5112 10.4692 12.186L15.8351 30.7264C16.0347 31.416 16.2264 32.1973 15.3122 32.5328C14.3102 32.9002 13.8655 32.215 13.6412 31.4397L11.9853 25.7099C11.9079 25.7284 11.8256 25.7491 11.7626 25.7587C11.4025 25.8149 11.1438 26.0019 11.0153 26.319C10.7797 26.9014 11.5198 28.1808 11.2412 29.2282C10.9993 30.1373 10.4684 30.7774 10.2376 31.5505C9.92387 32.6053 10.4732 32.912 11.1294 33.6674C11.7218 34.3518 12.3462 35.0111 12.9434 35.6904C13.9781 36.8686 15.1342 38.4267 16.7948 38.8524C17.6978 39.0845 18.7948 39.2737 19.4774 39.9086C20.667 41.0151 20.2989 41.5813 20.6798 42.6146V42.6138Z" fill="white"/>
</svg>
