<svg width="44" height="44" viewBox="0 0 44 44" fill="none" xmlns="http://www.w3.org/2000/svg">
<path d="M15.4141 9.81538C17.216 9.81538 18.5612 10.34 19.4579 11.3892C20.3547 12.4385 20.803 13.9023 20.803 15.7977V16.2377H18.3074V15.62C18.3074 14.5285 18.0705 13.6823 17.6052 13.09C17.1399 12.4977 16.4293 12.2015 15.4733 12.2015C14.475 12.2015 13.739 12.5231 13.2737 13.1577C12.8084 13.7923 12.5716 14.7654 12.5716 16.06V21.4246C13.2568 19.7154 14.5427 18.8608 16.4293 18.8608C17.9351 18.8608 19.0518 19.36 19.7794 20.3669C20.5069 21.3654 20.8707 22.7615 20.8707 24.53V28.1515C20.8707 30.0215 20.4054 31.4938 19.4664 32.5769C18.5358 33.66 17.1822 34.2015 15.4056 34.2015C13.6037 34.2015 12.2416 33.66 11.311 32.5769C10.3804 31.4938 9.90668 30.0215 9.90668 28.1515V15.9585C9.90668 14.0038 10.3635 12.4892 11.2772 11.4146C12.1909 10.34 13.5614 9.80692 15.4056 9.80692L15.4141 9.81538ZM0.0170419 16.2462C0.0170419 15.0192 0.803814 13.97 1.89514 13.5808C1.93744 10.67 2.1997 7.96231 3.48561 5.84692C4.96609 3.41846 7.69864 1.87846 12.7407 1.87846H13.6037C13.9928 0.786923 15.0418 0 16.2601 0C17.8167 0 19.0857 1.26077 19.0857 2.82615C19.0857 4.38308 17.8252 5.65231 16.2601 5.65231C15.0334 5.65231 13.9928 4.87385 13.6037 3.78231H12.7407C8.47695 3.78231 6.24354 4.96692 5.10145 6.83692C4.04396 8.57154 3.81554 10.9662 3.7817 13.5808C4.87303 13.97 5.65134 15.0108 5.65134 16.2377C5.65134 17.7946 4.39082 19.0638 2.82573 19.0638C1.26911 19.0638 0.00012207 17.8031 0.00012207 16.2377L0.0170419 16.2462ZM0.0170419 27.7623C0.0170419 26.2054 1.27757 24.9362 2.84265 24.9362C4.39928 24.9362 5.66826 26.1969 5.66826 27.7623C5.66826 28.9892 4.88995 30.03 3.79862 30.4192C3.83246 33.0338 4.05242 35.4369 5.10991 37.1715C6.252 39.0415 8.48541 40.2262 12.7492 40.2262H13.6121C14.0013 39.1346 15.0503 38.3477 16.2685 38.3477C17.8252 38.3477 19.0941 39.6085 19.0941 41.1738C19.0941 42.7308 17.8336 44 16.2685 44C15.0418 44 14.0013 43.2215 13.6121 42.13H12.7492C7.69864 42.13 4.97455 40.59 3.49407 38.1615C2.1997 36.0462 1.93744 33.3385 1.9036 30.4277C0.803814 30.0385 0.0170419 28.9977 0.0170419 27.7623ZM38.3489 16.2462C38.3489 15.0192 39.1272 13.9785 40.2185 13.5892C40.1847 10.9746 39.9647 8.57154 38.9073 6.83692C37.7652 4.96692 35.5317 3.78231 31.268 3.78231H30.4473C30.0582 4.87385 29.0176 5.65231 27.7909 5.65231C26.2343 5.65231 24.9653 4.39154 24.9653 2.82615C24.9653 1.26923 26.2258 0 27.7909 0C29.0176 0 30.0582 0.786923 30.4473 1.87846H31.268C36.3185 1.87846 39.0426 3.41846 40.5231 5.84692C41.8175 7.96231 42.0797 10.6615 42.1136 13.5723C43.2133 13.9615 44.0001 15.0108 44.0001 16.2377C44.0001 17.7946 42.7396 19.0638 41.1745 19.0638C39.6179 19.0638 38.3489 17.8031 38.3489 16.2377V16.2462ZM38.3489 27.7623C38.3489 26.2054 39.6094 24.9362 41.1745 24.9362C42.7311 24.9362 44.0001 26.1969 44.0001 27.7623C44.0001 28.9892 43.2133 30.0385 42.122 30.4277C42.0797 33.3385 41.8175 36.0462 40.5316 38.1615C39.0511 40.59 36.3185 42.13 31.2764 42.13H30.4558C30.0666 43.2215 29.0261 44 27.7994 44C26.2428 44 24.9738 42.7392 24.9738 41.1738C24.9738 39.6169 26.2343 38.3477 27.7994 38.3477C29.0261 38.3477 30.0666 39.1346 30.4558 40.2262H31.2764C35.5402 40.2262 37.7736 39.0415 38.9157 37.1715C39.9732 35.4369 40.2016 33.0423 40.2355 30.4192C39.1441 30.03 38.3658 28.9892 38.3658 27.7623H38.3489ZM15.4141 21.2808C14.4581 21.2808 13.7475 21.5854 13.2822 22.1862C12.8169 22.7869 12.58 23.6415 12.58 24.7331V28.3208C12.58 29.4123 12.8169 30.2585 13.2822 30.8677C13.7475 31.4685 14.4581 31.7731 15.4141 31.7731C16.3447 31.7731 17.0553 31.4685 17.5291 30.8677C18.0113 30.2669 18.2481 29.4123 18.2481 28.3208V24.7331C18.2481 23.6415 18.0113 22.7954 17.5291 22.1862C17.0468 21.5854 16.3447 21.2808 15.4141 21.2808ZM33.0699 33.9477H30.4727V29.1331H22.7573V26.7046L30.1682 10.0354H33.0699V26.7046H34.9819V29.1331H33.0699V33.9477ZM30.4727 26.7046V15.0277L25.2107 26.7046H30.4727Z" fill="white"/>
</svg>
