<svg width="36" height="36" viewBox="0 0 36 36" fill="none" xmlns="http://www.w3.org/2000/svg">
<path d="M6.75918 0H29.2408C31.0776 0 32.7674 0.771429 34.0163 1.98367C35.2286 3.19592 36 4.88571 36 6.75918V29.2408C36 31.1143 35.2286 32.7673 34.0163 34.0163C32.8041 35.2286 31.1143 36 29.2408 36H6.75918C4.92245 36 3.23265 35.2286 1.98367 34.0163C0.771425 32.8041 0 31.1143 0 29.2408V6.75918C0 4.88571 0.771425 3.23265 1.98367 1.98367C3.19592 0.771429 4.88572 0 6.75918 0V0ZM14.2163 11.2776V17.0816H11.902V11.2776H14.2163V11.2776ZM24.0612 11.2776V17.0816H21.7469V11.2776H24.0612V11.2776ZM19.1388 11.2776V17.0816H16.8245V11.2776H19.1388V11.2776ZM9.66122 7.01633H26.3388C27.0735 7.01633 27.7347 7.3102 28.2122 7.78775C28.6898 8.26531 28.9837 8.92653 28.9837 9.66122V19.7633C28.9837 20.2776 28.7633 20.7184 28.4327 21.049C28.102 21.3796 27.6245 21.6 27.1469 21.6H24.8327V22.6653C24.8327 23.1796 24.6122 23.6204 24.2816 23.951C23.951 24.2816 23.4735 24.502 22.9959 24.502H21.9673V25.4204C21.9673 25.9347 21.7469 26.3755 21.4163 26.7061C21.0857 27.0367 20.6082 27.2571 20.1306 27.2571H15.9061C15.3918 27.2571 14.951 27.0367 14.6204 26.7061C14.2898 26.3755 14.0694 25.898 14.0694 25.4204V24.502H13.0408C12.5265 24.502 12.0857 24.2816 11.7551 23.951C11.4245 23.6204 11.2041 23.1429 11.2041 22.6653V21.6H8.8898C8.37551 21.6 7.93469 21.3796 7.60408 21.049C7.27347 20.7184 7.05306 20.2408 7.05306 19.7633V9.66122C7.05306 8.92653 7.34694 8.26531 7.82449 7.78775C8.30204 7.3102 8.96326 7.01633 9.69796 7.01633H9.66122ZM26.3388 9.33061H9.66122C9.55102 9.33061 9.47755 9.36735 9.44082 9.44082C9.36735 9.51429 9.33061 9.58776 9.33061 9.69796V19.3592H11.9755C12.3796 19.3592 12.7469 19.5429 13.0408 19.8C13.298 20.0571 13.4816 20.4245 13.4816 20.8653V22.2612H14.8775C15.2816 22.2612 15.649 22.4082 15.9429 22.702C16.2 22.9592 16.3837 23.3265 16.3837 23.7673V25.0163H19.6531V23.7673C19.6531 23.3633 19.8367 22.9959 20.0939 22.7388C20.351 22.4816 20.7184 22.298 21.1225 22.298H22.5184V20.902C22.5184 20.498 22.702 20.1306 22.9592 19.8735C23.2163 19.6163 23.5837 19.4327 23.9878 19.4327H26.6327V9.77143C26.6327 9.69796 26.5959 9.58775 26.5224 9.55102C26.449 9.47755 26.3755 9.44082 26.302 9.44082L26.3388 9.33061ZM29.2408 2.31429H6.75918C5.54694 2.31429 4.40816 2.82857 3.6 3.6C2.79184 4.40816 2.27755 5.5102 2.27755 6.75918V29.2408C2.27755 30.4531 2.79184 31.5918 3.6 32.4C4.40816 33.2082 5.51021 33.7224 6.75918 33.7224H29.2408C30.4531 33.7224 31.5918 33.2082 32.4 32.4367C33.2082 31.6286 33.7225 30.5265 33.7225 29.2775V6.79592C33.7225 5.58367 33.2082 4.4449 32.4 3.63673C31.5918 2.82857 30.4898 2.31429 29.2408 2.31429V2.31429Z" fill="white"/>
</svg>
