<svg width="566" height="730" viewBox="0 0 566 730" fill="none" xmlns="http://www.w3.org/2000/svg">
<g clip-path="url(#clip0_238_15287)">
<rect width="565.333" height="730" rx="5" fill="#1F4E11"/>
<g style="mix-blend-mode:color-dodge" opacity="0.1">
<path d="M597.509 -406.715C479.109 -454.697 335.686 -401.638 264.498 -278.337C193.31 -155.036 219.073 -4.29795 319.827 74.2481C205.825 0.758555 173.07 -158.686 247.738 -288.014C322.405 -417.341 476.864 -468.697 597.509 -406.715ZM284.722 -266.661C359.389 -395.989 513.848 -447.344 634.493 -385.362C516.093 -433.344 372.67 -380.286 301.482 -256.985C230.294 -133.683 256.057 17.0548 356.811 95.6009C242.809 22.1113 210.054 -137.333 284.722 -266.661ZM671.477 -364.009C553.077 -411.991 409.654 -358.933 338.466 -235.632C267.278 -112.331 293.041 38.4076 393.795 116.954C279.793 43.4641 247.038 -115.98 321.706 -245.308C396.373 -374.636 550.832 -425.992 671.477 -364.009ZM358.69 -223.956C433.358 -353.283 587.816 -404.639 708.461 -342.657C590.061 -390.639 446.638 -337.58 375.45 -214.279C304.262 -90.9778 330.025 59.7603 430.779 138.306C316.777 64.8168 284.023 -94.6274 358.69 -223.956ZM745.445 -321.304C627.045 -369.286 483.622 -316.227 412.434 -192.926C341.246 -69.6251 367.009 81.1131 467.763 159.659C353.761 86.1696 321.007 -73.2746 395.674 -202.603C470.342 -331.93 624.801 -383.286 745.445 -321.304ZM432.658 -181.25C507.326 -310.578 661.785 -361.933 782.429 -299.951C664.029 -347.933 520.606 -294.875 449.418 -171.574C378.23 -48.2723 403.993 102.466 504.747 181.012C390.745 107.522 357.991 -51.9219 432.658 -181.25ZM819.413 -278.598C701.013 -326.58 557.59 -273.522 486.402 -150.221C415.214 -26.9196 440.977 123.819 541.731 202.365C427.729 128.875 394.975 -30.5691 469.642 -159.897C544.31 -289.225 698.769 -340.581 819.413 -278.598ZM506.626 -138.545C581.294 -267.872 735.753 -319.228 856.397 -257.246C737.997 -305.228 594.574 -252.169 523.386 -128.868C452.198 -5.56681 477.961 145.171 578.715 223.717C464.713 150.228 431.959 -9.21635 506.626 -138.545ZM893.381 -235.893C774.981 -283.875 631.558 -230.816 560.37 -107.515C489.182 15.7859 514.945 166.524 615.699 245.07C501.698 171.581 468.943 12.1364 543.61 -117.192C618.278 -246.519 772.737 -297.875 893.381 -235.893ZM580.594 -95.8391C655.262 -225.167 809.721 -276.522 930.365 -214.54C811.965 -262.522 668.542 -209.464 597.354 -86.1627C526.166 37.1387 551.929 187.877 652.683 266.423C538.682 192.933 505.927 33.4891 580.594 -95.8391ZM282.843 52.8954C168.841 -20.5942 136.086 -180.038 210.754 -309.367C285.421 -438.694 439.88 -490.05 560.525 -428.068C442.125 -476.05 298.702 -422.991 227.514 -299.69C156.326 -176.389 182.089 -25.6507 282.843 52.8954ZM967.349 -193.187C848.949 -241.169 705.526 -188.111 634.338 -64.8099C563.15 58.4914 588.913 209.23 689.667 287.776C575.666 214.286 542.911 54.8419 617.578 -74.4863C692.246 -203.814 846.705 -255.17 967.349 -193.187Z" fill="url(#paint0_linear_238_15287)" stroke="#1B410D" stroke-width="2"/>
<path d="M72.0538 503.402C-46.346 455.42 -189.769 508.479 -260.957 631.78C-332.145 755.081 -306.382 905.819 -205.628 984.365C-319.63 910.876 -352.385 751.432 -277.717 622.103C-203.05 492.776 -48.5907 441.42 72.0538 503.402ZM-240.733 643.456C-166.066 514.129 -11.6067 462.773 109.038 524.755C-9.36199 476.773 -152.785 529.832 -223.973 653.133C-295.161 776.434 -269.398 927.172 -168.644 1005.72C-282.646 932.228 -315.401 772.784 -240.733 643.456ZM146.022 546.108C27.6221 498.126 -115.801 551.184 -186.989 674.485C-258.177 797.787 -232.414 948.525 -131.66 1027.07C-245.662 953.581 -278.417 794.137 -203.749 664.809C-129.082 535.481 25.3773 484.126 146.022 546.108ZM-166.765 686.162C-92.0976 556.834 62.3614 505.478 183.006 567.461C64.6061 519.479 -78.8171 572.537 -150.005 695.838C-221.193 819.139 -195.43 969.877 -94.6761 1048.42C-208.678 974.934 -241.433 815.49 -166.765 686.162ZM219.99 588.813C101.59 540.831 -41.8331 593.89 -113.021 717.191C-184.209 840.492 -158.446 991.23 -57.692 1069.78C-171.694 996.287 -204.449 836.843 -129.781 707.514C-55.1135 578.187 99.3455 526.831 219.99 588.813ZM-92.7968 728.867C-18.1295 599.539 136.33 548.184 256.974 610.166C138.574 562.184 -4.84901 615.243 -76.0368 738.544C-147.225 861.845 -121.462 1012.58 -20.7079 1091.13C-134.71 1017.64 -167.465 858.195 -92.7968 728.867ZM293.958 631.519C175.558 583.537 32.135 636.595 -39.0528 759.896C-110.241 883.198 -84.4781 1033.94 16.2762 1112.48C-97.7256 1038.99 -130.48 879.548 -55.8128 750.22C18.8546 620.892 173.314 569.537 293.958 631.519ZM-18.8287 771.573C55.8386 642.245 210.298 590.889 330.942 652.872C212.542 604.89 69.1191 657.948 -2.06875 781.249C-73.2568 904.55 -47.4941 1055.29 53.2602 1133.83C-60.7416 1060.35 -93.4964 900.901 -18.8287 771.573ZM367.926 674.224C249.526 626.242 106.103 679.301 34.9153 802.602C-36.2728 925.903 -10.51 1076.64 90.2443 1155.19C-23.7575 1081.7 -56.5123 922.254 18.1553 792.925C92.8227 663.598 247.282 612.242 367.926 674.224ZM55.1394 814.278C129.807 684.951 284.266 633.595 404.91 695.577C286.51 647.595 143.087 700.654 71.8993 823.954C0.711252 947.256 26.474 1097.99 127.228 1176.54C13.2264 1103.05 -19.5283 943.606 55.1394 814.278ZM-242.612 963.013C-356.614 889.523 -389.369 730.079 -314.701 600.751C-240.034 471.423 -85.5748 420.067 35.0697 482.05C-83.3301 434.068 -226.753 487.126 -297.941 610.427C-369.129 733.728 -343.366 884.466 -242.612 963.013ZM441.894 716.93C323.494 668.948 180.071 722.006 108.883 845.307C37.6953 968.609 63.458 1119.35 164.212 1197.89C50.2105 1124.4 17.4557 964.959 92.1234 835.631C166.791 706.303 321.25 654.947 441.894 716.93Z" fill="url(#paint1_linear_238_15287)" stroke="#1B410D" stroke-width="2"/>
<path d="M525.639 169.163C627.99 248.629 655.007 400.079 583.813 523.391C512.618 646.704 367.949 699.031 247.953 650.124C370.342 713.118 526.183 662.543 600.845 533.224C675.506 403.907 641.386 243.658 525.639 169.163ZM563.317 511.558C637.978 382.24 603.858 221.992 488.111 147.496C590.462 226.963 617.479 378.412 546.285 501.724C475.09 625.037 330.421 677.364 210.425 628.458C332.814 691.451 488.655 640.876 563.317 511.558ZM450.583 125.829C552.934 205.296 579.951 356.746 508.757 480.058C437.562 603.37 292.893 655.697 172.897 606.791C295.286 669.785 451.127 619.209 525.789 489.891C600.45 360.573 566.33 200.325 450.583 125.829ZM488.261 468.224C562.922 338.907 528.802 178.658 413.055 104.163C515.406 183.629 542.423 335.079 471.229 458.391C400.034 581.703 255.365 634.03 135.369 585.124C257.758 648.118 413.599 597.542 488.261 468.224ZM375.527 82.4958C477.878 161.962 504.895 313.412 433.701 436.724C362.506 560.036 217.837 612.364 97.8414 563.457C220.23 626.451 376.071 575.876 450.733 446.557C525.394 317.24 491.274 156.991 375.527 82.4958ZM413.205 424.891C487.866 295.573 453.746 135.325 337.999 60.829C440.35 140.296 467.367 291.745 396.173 415.057C324.978 538.37 180.309 590.697 60.3135 541.79C182.702 604.784 338.543 554.209 413.205 424.891ZM300.471 39.1623C402.822 118.629 429.839 270.079 358.645 393.391C287.451 516.703 142.781 569.03 22.7855 520.124C145.174 583.117 301.015 532.542 375.677 403.224C450.338 273.906 416.218 113.658 300.471 39.1623ZM338.149 381.557C412.81 252.24 378.691 91.991 262.943 17.4955C365.295 96.962 392.311 248.412 321.117 371.724C249.923 495.036 105.254 547.363 -14.7424 498.457C107.646 561.451 263.487 510.875 338.149 381.557ZM225.415 -4.17127C327.767 75.2952 354.783 226.745 283.589 350.057C212.395 473.369 67.7255 525.697 -52.2704 476.79C70.1185 539.784 225.959 489.209 300.621 359.89C375.283 230.573 341.163 70.3242 225.415 -4.17127ZM263.093 338.224C337.755 208.906 303.635 48.6574 187.887 -25.838C290.239 53.6284 317.255 205.078 246.061 328.39C174.867 451.703 30.1976 504.03 -89.7983 455.123C32.5906 518.117 188.431 467.542 263.093 338.224ZM285.481 671.791C407.87 734.785 563.711 684.209 638.373 554.891C713.034 425.574 678.914 265.325 563.167 190.83C665.518 270.296 692.535 421.746 621.341 545.058C550.146 668.37 405.477 720.698 285.481 671.791ZM150.359 -47.5048C252.711 31.9617 279.727 183.411 208.533 306.723C137.339 430.036 -7.33039 482.363 -127.326 433.457C-4.93731 496.45 150.903 445.875 225.565 316.557C300.227 187.239 266.107 26.9907 150.359 -47.5048Z" fill="url(#paint2_linear_238_15287)" stroke="#1B410D" stroke-width="2"/>
</g>
</g>
<defs>
<linearGradient id="paint0_linear_238_15287" x1="668.36" y1="-367.293" x2="371.955" y2="146.095" gradientUnits="userSpaceOnUse">
<stop stop-color="#2F2F2F"/>
<stop offset="0.494955" stop-color="white"/>
<stop offset="1" stop-color="#2F2F2F" stop-opacity="0"/>
</linearGradient>
<linearGradient id="paint1_linear_238_15287" x1="142.905" y1="542.824" x2="-153.5" y2="1056.21" gradientUnits="userSpaceOnUse">
<stop stop-color="#2F2F2F"/>
<stop offset="0.494955" stop-color="white"/>
<stop offset="1" stop-color="#2F2F2F" stop-opacity="0"/>
</linearGradient>
<linearGradient id="paint2_linear_238_15287" x1="455.044" y1="126.921" x2="176.075" y2="610.11" gradientUnits="userSpaceOnUse">
<stop stop-color="#2F2F2F" stop-opacity="0"/>
<stop offset="0.512772" stop-color="white"/>
<stop offset="1" stop-color="#2F2F2F"/>
</linearGradient>
<clipPath id="clip0_238_15287">
<rect width="565.333" height="730" rx="5" fill="white"/>
</clipPath>
</defs>
</svg>
